<?xml version="1.0" encoding="utf-8"?>
<svg xmlns="http://www.w3.org/2000/svg" xmlns:xlink="http://www.w3.org/1999/xlink" version= "1.1" width="1618px" height="1000px" viewBox="925 1350 1618 1000">
<g id="layer1">
<g style="fill:rgb(0,174,199); fill-opacity:0.99607843; stroke-linejoin: miter">
<path d="M924.999,1347.5149C924.3402,1347.5149,923.7084,1347.7766,923.2425,1348.2424C922.7766,1348.7083,922.5149,1349.3402,922.5149,1349.999L922.51587,2350.0C922.51587,2351.3718,923.62805,2352.4841,925.0,2352.4841L2543.001,2352.485C2543.66,2352.485,2544.2917,2352.2234,2544.7576,2351.7576C2545.2234,2351.2917,2545.485,2350.66,2545.485,2350.001L2545.4841,1350.0C2545.4841,1348.628,2544.3718,1347.5159,2543.0,1347.5159L924.999,1347.5149 Z"/>
</g>
<g style="fill:rgb(255,200,165); fill-opacity:0.99607843; stroke-linejoin: miter">
<path d="M1927.918,1844.252L1925.6156,1841.0122Q1915.2411,1826.3646,1910.0856,1821.2065Q1903.5767,1814.4822,1899.2733,1814.3835Q1897.0859,1814.359,1896.1722,1814.795Q1894.9738,1815.2206,1893.9214,1815.9861Q1890.7412,1818.4407,1889.0836,1822.5284Q1885.6127,1832.032,1889.9536,1838.9938Q1891.6322,1841.7096,1894.9775,1842.851Q1897.3662,1843.7651,1903.4761,1843.5359L1918.4799,1856.9666L1927.918,1844.252"/>
</g>
<g style="fill:rgb(125,53,7); fill-opacity:1.0; stroke-linejoin: miter">
<path d="M2076.0608,1700.793Q2082.044,1700.6362,2086.4756,1703.0671Q2088.5835,1704.146,2091.4329,1706.1426Q2102.3225,1713.8096,2103.637,1715.0757Q2113.1873,1722.6921,2114.0295,1732.1255Q2115.4287,1745.4058,2106.511,1760.9233Q2099.5361,1773.3484,2085.7693,1779.8235L2060.3306,1721.2429L2057.7922,1712.8877Q2054.1055,1709.8237,2054.0808,1708.0571Q2053.8618,1705.0945,2058.5925,1703.5596Q2067.5596,1701.1536,2075.9927,1700.7935 Z"/>
</g>
<g style="fill:rgb(255,200,165); fill-opacity:1.0; stroke-linejoin: miter">
<path d="M2059.9329,1716.4697L2063.255,1717.135L2073.762,1722.355Q2072.5237,1727.3787,2074.2112,1729.0469Q2074.851,1729.7844,2075.8733,1730.2651Q2081.7615,1732.3809,2082.4912,1733.0288Q2084.4084,1734.2307,2085.2273,1735.8728Q2086.4277,1738.0178,2085.8801,1742.5032Q2085.8057,1744.9968,2082.1162,1758.3081Q2081.661,1760.5867,2082.221,1761.0952Q2082.8477,1761.8938,2086.2375,1759.1084Q2086.1008,1752.7161,2089.4133,1751.7991Q2092.3816,1750.8276,2095.3657,1751.8025Q2098.1306,1752.8486,2098.4592,1755.063Q2099.3901,1758.2966,2092.4006,1770.1711Q2095.8293,1771.8872,2095.5298,1772.9888Q2095.6592,1773.9573,2093.3264,1776.8689L2090.365,1786.0837L2091.898,1792.3462L2073.704,1811.8965L2053.8713,1793.3418L2055.5146,1782.2727Q2054.525,1783.8918,2042.6111,1782.1848Q2038.2356,1781.3694,2037.9241,1778.4951L2037.657,1772.3433L2039.0735,1764.428L2042.6396,1755.7498Q2035.8044,1752.5591,2036.1221,1747.7502Q2036.294,1747.1704,2037.1316,1746.7432Q2038.6316,1746.509,2042.4253,1744.8179Q2045.8623,1741.6575,2047.2007,1739.8362Q2048.756,1737.7891,2049.591,1735.373Q2050.2654,1733.7632,2051.3955,1727.6826Q2051.7854,1726.2944,2052.4187,1725.147Q2053.7632,1722.4922,2059.8467,1716.5559 Z"/>
</g>
<g style="fill:rgb(255,255,255); fill-opacity:1.0; stroke-linejoin: miter">
<path d="M2053.4329,1788.5938L2073.9446,1796.8618L2092.3794,1789.8813L2115.908,1809.1653L2111.5706,1917.9644L2084.7393,1984.9541L2046.2466,1988.9873L1999.1797,1959.0269L2019.1721,1841.7505L2041.6682,1798.575L2053.3853,1788.634 Z"/>
</g>
<g style="fill:rgb(255,255,255); fill-opacity:1.0; stroke-linejoin: miter">
<path d="M2119.8489,1947.5842L2126.1287,1947.863L2133.8008,1945.9023L2144.6062,1962.4058L2137.5967,1962.2297L2134.5244,1960.508L2121.657,1963.9744L2119.849,1947.5903 Z"/>
</g>
<g style="fill:rgb(14,7,1); fill-opacity:1.0; stroke-linejoin: miter">
<path d="M2040.1135,2057.0217L2020.7224,2105.497L2047.9343,2124.5293L2047.0815,2057.8235L2040.7764,2057.0547 M2054.1252,1791.8352L2054.1252,1791.8364L2054.1252,1791.8372L2051.1853,1809.967L2042.3188,1864.6562L2030.7051,1950.7451C2037.8694,1953.0942,2040.0505,1958.8503,2069.4153,1959.6782L2096.7764,1962.189L2114.937,1958.5542L2090.932,2049.0376C2084.3093,2099.8809,2080.8066,2138.7056,2080.422,2165.5107L2086.2935,2169.2268C2076.219,2198.4446,2069.4934,2219.5396,2066.1157,2232.5107C2061.2725,2237.348,2052.4846,2236.0674,2039.7527,2228.6682C2036.2385,2214.562,2037.8728,2199.156,2044.656,2182.45L2038.2703,2172.779L1986.3762,2124.941L1978.9343,2112.497C1975.8933,2108.0093,1980.322,2067.3997,1992.2195,1990.6687L1974.9395,1982.4897L2005.1487,1870.4517C2004.1882,1869.8411,1993.6252,1878.9646,1973.4609,1897.8223L1962.1592,1900.3157C1930.7661,1875.998,1912.988,1860.8171,1908.8252,1854.7737L1916.2302,1846.0046L1925.1013,1834.1951L1961.992,1866.8884C1978.4072,1857.364,1995.1211,1834.3899,2012.134,1797.9666C2036.5217,1792.0913,2050.4343,1788.8975,2053.8713,1788.3843L2054.1252,1791.8352L2054.1252,1791.8364 Z"/>
</g>
<g style="fill:rgb(14,7,1); fill-opacity:1.0; stroke-linejoin: miter">
<path d="M2091.3904,1789.523L2101.6018,1796.0598L2141.7664,1812.5166L2155.3103,1836.6838L2180.8618,1866.675L2192.0962,1882.6526C2193.6084,1886.6536,2194.3584,1890.2405,2194.4966,1893.406C2194.7869,1900.0491,2191.4802,1908.1982,2184.6636,1918.0269C2177.9653,1927.6838,2164.5894,1943.7222,2144.2993,1965.9783L2126.2112,1942.9521L2138.0908,1935.4749L2153.0261,1919.2393L2167.1553,1898.1135L2140.851,1866.7188L2134.6262,1858.6667L2114.3662,1952.6201L2094.6758,1948.6394L2071.5823,1968.1624L2082.2068,1885.418L2086.5444,1840.2598L2091.3972,1789.7363 Z"/>
</g>
<g style="fill:rgb(14,7,1); fill-opacity:1.0; stroke-linejoin: miter">
<path d="M2039.7668,2054.956L2043.2295,2057.174L2043.2295,2057.175L2040.1135,2057.0217L2040.0911,2057.0789L2029.5583,2083.4084L2039.7493,2055.0044L2039.7668,2054.956 Z"/>
</g>
<g style="fill:rgb(14,7,1); fill-opacity:1.0; stroke-linejoin: miter">
<path d="M2047.1055,2059.6567L2048.5596,2060.5896L2047.8381,2117.0298L2047.1055,2059.6567 Z"/>
</g>
<g style="fill:rgb(14,7,1); fill-opacity:1.0; stroke-linejoin: miter">
<path d="M2039.6714,2119.0366L2047.7422,2124.5525L2047.7234,2125.9917L2039.6714,2119.0366 Z"/>
</g>
<g style="fill:rgb(14,7,1); fill-opacity:1.0; stroke-linejoin: miter">
<path d="M2046.4929,2034.9954L2048.5835,2131.592L2040.3118,2052.7131Q2026.3684,2092.6323,2023.1333,2101.7583Q2018.2197,2115.6824,2018.0562,2115.8057Q2017.8882,2115.9155,2023.0964,2100.2874Q2026.7126,2089.407,2039.9783,2049.9875L2040.0176,2049.9045L2040.3325,2052.6465L2046.481,2035.0315 Z"/>
</g>
<g style="fill:rgb(255,200,165); fill-opacity:1.0; stroke-linejoin: miter">
<path d="M2076.7717,1949.5901Q2086.0974,1943.092,2091.1267,1941.6863Q2096.307,1939.981,2102.4888,1941.6445Q2106.4036,1942.6016,2114.0784,1946.1699L2124.074,1947.699L2126.802,1962.6235L2105.8777,1970.8372L2085.1326,1970.772L2076.9697,1961.3806L2076.7727,1949.6211 Z"/>
</g>
<g style="fill:rgb(14,7,1); fill-opacity:1.0; stroke-linejoin: miter">
<path d="M2071.2473,1798.9365L2075.8762,1806.6113L2071.2937,1812.0535L2058.187,1937.4795L2047.7009,1949.9172L2036.2979,1940.2803L2065.5635,1811.5957L2064.3755,1803.6487L2071.182,1798.9814 Z"/>
</g>
<g style="fill:rgb(14,7,1); fill-opacity:1.0; stroke-linejoin: miter">
<path d="M2084.3584,2169.0874Q2102.8516,2169.0044,2105.3271,2169.5615L2105.8171,2184.9648L2098.1016,2185.7766Q2099.865,2200.2776,2101.758,2206.6633Q2102.6384,2209.7842,2103.7007,2212.2632L2108.224,2221.9102Q2109.0452,2223.9426,2109.356,2225.7876Q2110.3413,2230.2678,2106.608,2236.836Q2106.81,2237.3826,2093.5527,2255.5322Q2091.383,2258.2131,2088.9614,2256.3882Q2086.4277,2254.2078,2086.3293,2250.81Q2086.3103,2249.7454,2086.723,2248.198Q2089.0247,2241.5962,2089.0176,2240.7126Q2089.4343,2238.4634,2089.0466,2235.8015Q2088.6663,2231.6567,2083.6865,2219.939Q2081.7576,2215.7537,2079.3684,2213.9487Q2078.4321,2213.1912,2077.2612,2212.4814Q2071.936,2209.5422,2070.763,2208.7021Q2068.4778,2207.2197,2064.5586,2204.2947L2084.3223,2169.1516 Z"/>
</g>
<g style="fill:rgb(14,7,1); fill-opacity:1.0; stroke-linejoin: miter">
<path d="M2045.3586,2217.001L2061.527,2231.726Q2064.3318,2239.8882,2065.0662,2250.5703Q2065.8733,2262.2874,2064.216,2268.4988Q2062.0706,2277.3335,2052.033,2279.9617Q2045.9822,2281.5298,2041.3489,2280.4512Q2037.6785,2279.556,2036.5022,2276.079Q2034.551,2271.484,2036.9868,2255.7646Q2038.0093,2248.799,2040.9121,2233.5027L2045.356,2217.0127 Z"/>
</g>
<g style="fill:rgb(14,7,1); fill-opacity:1.0; stroke-linejoin: miter">
<path d="M2111.893,1969.7393L2112.0342,1989.2131L2110.6033,2006.675L2076.7498,2001.1475L2111.8599,1969.769 Z"/>
</g>
<g style="fill:rgb(230,73,33); fill-opacity:0.08627451; stroke-linejoin: miter">
<path d="M2061.857,1702.748L2090.4802,1739.5562L2092.5088,1742.825Q2093.8843,1745.4905,2094.3374,1748.8948L2095.0273,1761.6838Q2095.3828,1765.5142,2096.087,1768.2964Q2096.5989,1770.3845,2097.3477,1772.3032L2097.3455,1772.3044Q2096.3306,1773.2004,2095.253,1774.0422L2095.2551,1774.0435Q2094.7473,1775.0947,2093.3264,1776.8689L2090.365,1786.0837L2091.3865,1790.2576L2091.414,1790.2471L2091.3972,1789.7363L2091.3904,1789.523L2092.1096,1789.9832L2092.3794,1789.8813L2093.9102,1791.136L2094.3284,1791.404L2095.2148,1791.9714L2095.2148,1791.9724L2096.074,1792.5212L2097.7888,1793.6191L2097.7866,1793.6201Q2090.7273,1796.8113,2074.8052,1797.8081Q2072.9158,1797.8804,2071.1755,1797.8989Q2053.6523,1798.083,2051.2117,1792.7566Q2050.41,1791.0103,2050.9956,1788.9226L2050.993,1788.9236Q2052.9424,1788.5227,2053.8713,1788.3843L2053.9001,1788.782L2054.512,1789.0283L2055.514,1782.2783L2055.5117,1782.2798Q2055.396,1782.4631,2055.1377,1782.6042Q2055.3494,1782.383,2055.5723,1782.1572Q2064.1204,1774.282,2065.1714,1772.8691Q2068.0964,1769.604,2069.91,1766.1428Q2073.2915,1759.8425,2073.2869,1750.4807Q2073.0283,1736.4641,2066.5,1726.3096Q2064.3252,1723.0774,2061.0625,1720.2588Q2060.5981,1719.6865,2058.3245,1718.0674L2058.3215,1718.0681Q2058.7092,1717.6765,2059.1206,1717.2693L2059.1235,1717.2705L2057.7922,1712.8877Q2054.1055,1709.8237,2054.0808,1708.0571Q2053.8618,1705.0945,2058.5925,1703.5596Q2060.2324,1703.1199,2061.8547,1702.7485 Z"/>
</g>
<g style="fill:rgb(125,53,7); fill-opacity:0.07450981; stroke-linejoin: miter">
<path d="M2105.8474,1939.7683Q2104.817,1940.4302,2111.3823,1944.1179L2106.6812,1941.1213L2115.7036,1946.4187L2124.074,1947.699L2124.088,1947.7722L2126.1287,1947.863L2129.4102,1947.0242L2126.2112,1942.9521L2134.0876,1937.9941L2134.0894,1937.9956Q2136.8748,1941.8611,2139.8992,1948.9368L2129.9253,1953.0076L2076.6233,1953.6086L2076.869,1949.9504L2081.3467,1941.6196Q2085.014,1943.2534,2083.846,1943.5366Q2095.5312,1940.2903,2099.024,1935.7607L2102.545,1938.1636 Z"/>
</g>
<g style="fill:rgb(255,255,255); fill-opacity:0.99607843; stroke-linejoin: miter">
<path d="M2055.439,1736.2268L2055.439,1736.2283L2054.5405,1739.438Q2057.5317,1739.7292,2060.5225,1740.0203L2055.439,1736.2268"/>
</g>
<g style="fill:rgb(0,0,0); fill-opacity:0.99607843; stroke-linejoin: miter">
<path d="M2055.5425,1736.2144L2055.43,1736.3225Q2055.0823,1736.6433,2054.8105,1736.9912Q2054.6045,1737.2891,2054.585,1737.3562Q2054.524,1737.4824,2054.4858,1737.6174Q2054.4482,1737.7529,2054.4336,1737.8962L2054.424,1738.0413Q2054.4192,1738.188,2054.4314,1738.3413Q2054.4578,1738.7222,2054.6338,1739.4541L2056.261,1738.294L2055.5425,1736.2144"/>
</g>
<g style="fill:rgb(0,0,0); fill-opacity:0.99607843; stroke-linejoin: miter">
<path d="M2073.9585,1715.5076L2073.9585,1715.5085L2073.9585,1715.5076L2073.9585,1715.5076"/>
</g>
<g style="fill:rgb(134,54,8); fill-opacity:0.99607843; stroke-linejoin: miter">
<path d="M2055.9565,1733.8235L2056.348,1733.8767Q2057.5334,1734.0295,2058.609,1734.2507Q2059.7832,1734.5203,2060.2852,1734.77Q2060.838,1735.011,2061.43,1735.4797Q2061.5283,1735.5479,2061.94,1735.937Q2062.1848,1736.1719,2062.7026,1736.7527L2055.9565,1733.8235"/>
</g>
<g style="fill:rgb(134,54,8); fill-opacity:0.99607843; stroke-linejoin: miter">
<path d="M2063.4773,1725.6548L2063.4773,1725.6548L2063.4768,1725.656L2063.4773,1725.6548"/>
</g>
<g style="fill:rgb(255,255,255); fill-opacity:0.99607843; stroke-linejoin: miter">
<path d="M2040.1414,1761.8306L2039.4951,1763.4033Q2042.7046,1763.5969,2048.3762,1763.6055Q2044.9348,1763.1438,2043.2625,1762.7788Q2041.6172,1762.3975,2041.3611,1762.2876Q2040.7732,1762.1023,2040.2625,1761.8816Q2040.2119,1761.8596,2040.1621,1761.8367Q2040.1555,1761.8335,2040.1487,1761.8306 Z"/>
</g>
<g style="fill:rgb(0,0,0); fill-opacity:0.40392157; stroke-linejoin: miter">
<path d="M2407.9512,2276.8677L2402.1255,2277.807Q2360.7036,2280.645,2159.7285,2282.347Q1957.3618,2284.0469,1683.128,2283.7258Q1421.4071,2283.277,1264.4911,2281.0974Q1214.2137,2280.3926,1181.6642,2279.5615L1154.3075,2278.708Q1131.7633,2277.826,1131.5099,2276.8677Q1138.354,2273.9263,1318.4403,2271.9739Q1498.5271,2270.0205,1769.7303,2269.946Q2040.9343,2270.0205,2221.0203,2271.9739Q2401.1074,2273.9263,2407.9512,2276.8677"/>
</g>
<g style="fill:rgb(255,203,40); fill-opacity:1.0; stroke-linejoin: miter">
<path d="M1569.5114,1757.9263L1348.7673,1993.4727L1790.3395,1993.395L1569.5114,1757.9263 Z M1569.546,1948.7363C1544.8605,1948.7412,1524.8458,1928.7324,1524.841,1904.0479C1524.8364,1879.3616,1544.8439,1859.3473,1569.5302,1859.3424C1594.2158,1859.3383,1614.23,1879.3468,1614.235,1904.0312C1614.2386,1928.7161,1594.232,1948.7317,1569.546,1948.7363 Z"/>
</g>
<g style="fill:rgb(255,203,40); fill-opacity:1.0; stroke-linejoin: miter">
<path d="M1346.1392,1996.279L1346.0709,1996.3513L1346.1132,2231.8572L1584.4968,2231.8157L1584.462,2038.127L1726.0028,2038.103L1726.0376,2231.7888L1793.0831,2231.7776L1793.0427,2008.2917L1346.1411,2008.3738L1346.1392,1996.279 Z M1401.9764,2187.151L1401.9598,2097.7566L1401.9575,2082.858L1401.9518,2053.0603L1401.9492,2038.1611L1416.8479,2038.1594L1521.1409,2038.1401L1536.0396,2038.1382L1536.0419,2053.0361L1536.0475,2082.8335L1536.0502,2097.733L1536.0659,2187.1265L1536.069,2202.0251L1521.1696,2202.0288L1416.8777,2202.0466L1401.9786,2202.0508L1401.9764,2187.151 Z"/>
</g>
<g style="fill:rgb(88,95,113); fill-opacity:1.0; stroke-linejoin: miter">
<path d="M1790.3407,1993.3936L1348.7673,1993.4739L1346.1392,1996.279L1346.1411,2008.3721L1793.0416,2008.2932L1793.1095,2008.2917L1793.1077,1996.3442 Z"/>
</g>
<g style="fill:rgb(112,97,78); fill-opacity:1.0; stroke-linejoin: miter">
<path d="M1847.7549,1989.2727L1778.194,1915.103L1778.1788,1829.5077L1733.482,1829.5168L1733.4889,1867.4332L1569.5,1692.576L1291.3523,1989.3726L1323.9685,2019.9355L1346.0697,1996.3513L1346.1392,1996.279L1348.7673,1993.4727L1569.5114,1757.9263L1790.3407,1993.3936L1793.1077,1996.3442L1815.1505,2019.8477 Z"/>
</g>
<g style="fill:rgb(105,90,105); fill-opacity:1.0; stroke-linejoin: miter">
<path d="M1569.5302,1859.3424C1544.8439,1859.3473,1524.8364,1879.363,1524.841,1904.0479C1524.8458,1928.7334,1544.8605,1948.7405,1569.546,1948.7363C1594.232,1948.7317,1614.2386,1928.7161,1614.235,1904.0312C1614.23,1879.3457,1594.2158,1859.3383,1569.5302,1859.3424 Z M1569.5433,1933.8374C1553.0856,1933.8406,1539.7427,1920.502,1539.7396,1904.0449C1539.7385,1893.2844,1545.4408,1883.8579,1553.9901,1878.6178C1558.089,1876.1036,1562.8431,1874.5562,1567.9379,1874.2856C1568.4657,1874.2577,1568.9982,1874.2418,1569.534,1874.2418C1585.9911,1874.2385,1599.334,1887.5764,1599.337,1904.0339C1599.34,1920.4917,1586.0005,1933.8347,1569.5433,1933.8374 Z"/>
</g>
<g style="fill:rgb(149,255,255); fill-opacity:1.0; stroke-linejoin: miter">
<path d="M1569.5325,1874.2418C1585.9884,1874.2385,1599.3324,1887.5779,1599.3358,1904.0339C1599.3324,1887.5764,1585.9896,1874.2385,1569.5325,1874.2418 Z"/>
</g>
<g style="fill:rgb(149,255,255); fill-opacity:1.0; stroke-linejoin: miter">
<path d="M1567.9364,1874.2849C1568.4646,1874.2566,1568.9978,1874.2404,1569.5325,1874.2404C1568.9978,1874.2418,1568.4657,1874.258,1567.9364,1874.2849 Z"/>
</g>
<g style="fill:rgb(178,215,242); fill-opacity:1.0; stroke-linejoin: miter">
<path d="M1548.466,1882.9752C1550.1239,1881.3142,1551.9792,1879.8508,1553.9901,1878.6178C1545.442,1883.8579,1539.7385,1893.2844,1539.7396,1904.0449C1539.7434,1920.502,1553.0863,1933.8406,1569.5433,1933.8374C1586.0005,1933.8347,1599.3389,1920.4917,1599.3358,1904.0339C1599.3378,1912.2617,1596.0028,1919.7126,1590.61,1925.1038L1548.466,1882.9752 Z"/>
</g>
<g style="fill:rgb(139,181,211); fill-opacity:1.0; stroke-linejoin: miter">
<path d="M1569.5325,1874.2418C1568.9978,1874.2418,1568.4657,1874.258,1567.9364,1874.2856C1562.8417,1874.5562,1558.089,1876.1036,1553.9886,1878.6178C1551.9777,1879.8508,1550.1239,1881.3142,1548.4647,1882.9752L1590.608,1925.1038C1596.0017,1919.7126,1599.3358,1912.2617,1599.3344,1904.0339C1599.3324,1887.5779,1585.9884,1874.2385,1569.5325,1874.2418 Z"/>
</g>
<g style="fill:rgb(178,215,242); fill-opacity:1.0; stroke-linejoin: miter">
<path d="M1506.2686,2187.1313L1416.8585,2097.753L1416.8751,2187.1475L1521.1672,2187.1301 Z"/>
</g>
<g style="fill:rgb(139,181,211); fill-opacity:1.0; stroke-linejoin: miter">
<path d="M1416.8505,2053.0562L1521.1432,2053.037L1521.1484,2082.8354L1416.8562,2082.8542L1416.8505,2053.0562 Z M1416.8505,2053.0562L1521.1432,2053.037L1521.1484,2082.8354L1416.8562,2082.8542L1416.8505,2053.0562 Z M1416.8505,2053.0562L1521.1432,2053.037L1521.1484,2082.8354L1416.8562,2082.8542L1416.8505,2053.0562 Z M1416.8505,2053.0562L1521.1432,2053.037L1521.1484,2082.8354L1416.8562,2082.8542L1416.8505,2053.0562 Z"/>
</g>
<g style="fill:rgb(88,95,113); fill-opacity:1.0; stroke-linejoin: miter">
<path d="M1521.1696,2202.028L1536.069,2202.0261L1536.0659,2187.1265L1536.0502,2097.733L1536.0475,2082.8335L1536.0419,2053.0361L1536.0396,2038.137L1521.1409,2038.1409L1416.8479,2038.1584L1401.9492,2038.1626L1401.9518,2053.0603L1401.9575,2082.858L1401.9598,2097.7566L1401.9764,2187.151L1401.9786,2202.0496L1416.8777,2202.0486L1521.1696,2202.028 Z M1416.8505,2053.0562L1521.1432,2053.0388L1521.1484,2082.8354L1416.8562,2082.855L1416.8505,2053.0562 Z M1416.8585,2097.753L1521.1515,2097.7356L1521.1672,2187.1274L1416.8751,2187.1475L1416.8585,2097.753 Z"/>
</g>
<g style="fill:rgb(139,181,211); fill-opacity:1.0; stroke-linejoin: miter">
<path d="M1521.1672,2187.1287L1521.1515,2097.7349L1416.8585,2097.7544L1506.2686,2187.1313 Z"/>
</g>
<g style="fill:rgb(173,158,127); fill-opacity:1.0; stroke-linejoin: miter">
<path d="M1726.0443,2276.4854L1726.036,2231.7888L1726.001,2038.1016L1584.4609,2038.1284L1584.4957,2231.8142L1584.504,2276.511 Z"/>
</g>
<g style="fill:rgb(112,97,78); fill-opacity:1.0; stroke-linejoin: miter">
<path d="M1584.4957,2231.8142L1346.112,2231.8582L1346.1204,2276.554L1584.504,2276.5125L1584.504,2276.511 Z"/>
</g>
<g style="fill:rgb(112,97,78); fill-opacity:1.0; stroke-linejoin: miter">
<path d="M1726.0443,2276.4854L1726.0443,2276.487L1793.0895,2276.4739L1793.0819,2231.7764L1726.036,2231.7903 Z"/>
</g>
<g style="fill:rgb(154,127,108); fill-opacity:1.0; stroke-linejoin: miter">
<path d="M1895.5277,1775.5441L1900.7908,1775.5443L1906.0538,1775.5446Q1906.0538,1817.2161,1906.0538,1858.8878Q1900.7908,1858.8881,1895.5277,1858.8883Q1895.5277,1817.2161,1895.5277,1775.5441"/>
</g>
<g style="fill:rgb(255,255,255); fill-opacity:0.7058824; stroke-linejoin: miter">
<path d="M1374.3392,1685.1538C1375.0197,1682.6667,1375.3506,1680.1001,1375.3247,1677.498C1375.1667,1662.1132,1362.5223,1649.7249,1347.1368,1649.8826C1340.7362,1649.947,1334.5067,1652.2335,1329.5953,1656.3201C1325.2273,1659.9539,1322.0581,1664.8652,1320.5428,1670.2957C1310.2375,1669.4386,1300.996,1676.0669,1298.1853,1685.6312C1296.6228,1685.2922,1295.0283,1685.1289,1293.4225,1685.146C1281.5822,1685.267,1272.0465,1694.9294,1272.1674,1706.77C1272.2888,1718.6112,1282.0195,1728.0757,1293.8605,1727.9547L1368.8306,1727.1887C1380.6716,1727.0673,1390.2064,1717.4047,1390.0853,1705.5638C1389.9862,1695.8766,1383.4896,1687.6637,1374.3392,1685.1538 Z"/>
</g>
<g style="fill:rgb(255,255,255); fill-opacity:0.7058824; stroke-linejoin: miter">
<path d="M2265.1633,1661.0023C2265.761,1658.8196,2266.0515,1656.567,2266.0286,1654.2828C2265.89,1640.7789,2254.7915,1629.9054,2241.287,1630.0436C2235.6692,1630.1005,2230.2014,1632.1074,2225.891,1635.6945C2222.0564,1638.8835,2219.2751,1643.1945,2217.9453,1647.9609C2208.9001,1647.209,2200.7888,1653.0267,2198.3218,1661.4213C2196.95,1661.1238,2195.5505,1660.9806,2194.141,1660.9954C2183.7488,1661.1017,2175.3794,1669.5824,2175.4854,1679.9751C2175.5918,1690.3683,2184.1328,1698.6758,2194.526,1698.5697L2260.3284,1697.8975C2270.7217,1697.7911,2279.0908,1689.3099,2278.9844,1678.9167C2278.8977,1670.414,2273.1953,1663.2057,2265.1633,1661.0023 Z"/>
</g>
<g style="fill:rgb(255,255,255); fill-opacity:0.99607843; stroke-linejoin: miter">
<path d="M1816.0955,1694.5895L1902.7795,1694.59L1989.4635,1694.5906Q1989.4635,1741.4337,1989.4635,1788.2769Q1902.7795,1788.2772,1816.0955,1788.2777Q1816.0955,1741.4336,1816.0955,1694.5895"/>
</g>
<g style="fill:rgb(254,200,165); fill-opacity:0.99607843; stroke-linejoin: miter">
<path d="M1895.9558,1815.1571L1896.8711,1816.1702Q1899.7227,1819.1923,1901.6233,1822.366Q1902.2217,1823.4296,1902.6086,1824.5267L1902.9297,1825.6344L1903.1187,1826.7632L1903.1624,1827.915Q1903.0125,1830.814,1901.3152,1833.9595Q1899.19,1837.8868,1895.1564,1843.097L1890.375,1832.3444L1895.9558,1815.1571"/>
</g>
<g>
<g style="fill:rgb(255,0,0); fill-opacity:1.0; stroke-linejoin: miter">
<path d="M1879.8784,1728.6815Q1881.9252,1728.6815,1881.9508,1730.5513L1882.0319,1736.4573Q1882.0521,1737.9338,1881.3436,1738.5764Q1880.6768,1739.1763,1879.4113,1739.1937L1877.8503,1739.2151L1877.7323,1730.6093Q1877.7062,1728.7108,1879.8156,1728.6819Q1879.8472,1728.6815,1879.8784,1728.6815 Z M1931.0077,1727.9799Q1933.0544,1727.9799,1933.0802,1729.8497L1933.2092,1739.2572L1928.9906,1739.3151L1928.8616,1729.9076Q1928.8354,1728.0093,1930.9448,1727.9802Q1930.9764,1727.9799,1931.0077,1727.9799 Z M1858.6167,1728.9731Q1860.6635,1728.9731,1860.6892,1730.843L1860.97,1751.3032Q1860.996,1753.2017,1858.8867,1753.2305Q1858.855,1753.231,1858.8237,1753.231Q1856.777,1753.231,1856.7513,1751.3611L1856.4706,1730.9009Q1856.4446,1729.0026,1858.5538,1728.9736Q1858.5854,1728.9731,1858.6167,1728.9731 Z M1976.5499,1724.4431L1960.7302,1724.6602L1961.1425,1754.6965L1977.0043,1754.4789L1976.9476,1750.3447L1968.2573,1750.4639L1968.1161,1740.1705L1976.511,1740.0554L1976.4567,1736.0898L1968.0616,1736.2051L1967.958,1728.6538L1976.6061,1728.5352L1976.5499,1724.4431 Z M1950.3103,1724.8032L1943.1388,1724.9016L1943.5509,1754.938L1959.4128,1754.7202L1959.3561,1750.586L1950.6658,1750.7053L1950.3103,1724.8032 Z M1931.1611,1724.1816Q1931.0276,1724.1816,1930.8927,1724.1836Q1928.9099,1724.2108,1927.1862,1724.6564Q1925.5039,1725.0592,1924.2488,1725.8359Q1923.0358,1726.612,1922.3336,1727.7188Q1921.6316,1728.8254,1921.65,1730.1753L1921.9939,1755.2338L1929.2078,1755.1348L1929.0444,1743.2383L1933.2631,1743.1804L1933.4263,1755.0769L1940.5557,1754.979L1940.2119,1729.9207Q1940.1934,1728.5707,1939.4612,1727.4836Q1938.7289,1726.3967,1937.4529,1725.6547Q1936.2191,1724.9121,1934.5259,1724.5134Q1932.9509,1724.1816,1931.1611,1724.1816 Z M1880.1053,1724.8828Q1879.9357,1724.8828,1879.7634,1724.8851Q1877.7806,1724.9124,1876.0557,1725.2736Q1874.3723,1725.592,1873.1166,1726.3267Q1871.903,1727.0605,1871.2026,1728.2937Q1870.5022,1729.527,1870.5266,1731.2988L1870.8646,1755.9353L1878.0784,1755.8364L1877.8967,1742.59L1879.4575,1742.5686Q1879.4908,1742.5681,1879.5238,1742.5681Q1882.1157,1742.5681,1882.1547,1745.4008L1882.297,1755.7784L1889.2155,1755.6836L1889.065,1744.7152Q1889.0406,1742.9434,1887.719,1741.9489Q1886.4396,1740.9539,1883.694,1740.7383Q1886.4332,1740.4897,1887.5981,1739.2924Q1888.7638,1738.1371,1888.7343,1735.9856L1888.6671,1731.092Q1888.6422,1729.2781,1887.9504,1728.064Q1887.3014,1726.8914,1886.1099,1726.1483Q1884.9187,1725.4473,1883.311,1725.1318Q1881.8467,1724.8828,1880.1053,1724.8828 Z M1910.4791,1724.4661Q1910.3094,1724.4661,1910.1372,1724.4684Q1905.7499,1724.5286,1903.5747,1725.9087Q1901.3997,1727.2887,1901.4476,1730.79L1901.4882,1733.7432Q1901.5143,1735.6415,1902.2065,1736.8978Q1902.8983,1738.1119,1904.5188,1739.3555L1910.5763,1744.1669Q1911.472,1744.8718,1911.8645,1745.7947Q1912.2147,1746.7183,1912.2263,1747.5619L1912.2622,1750.1775Q1912.2795,1751.443,1911.7386,1751.999Q1911.2394,1752.5122,1910.1847,1752.5266Q1910.1531,1752.5271,1910.1218,1752.5271Q1908.075,1752.5271,1908.0493,1750.6572L1907.9729,1745.0886L1901.3497,1745.1796L1901.4175,1750.1152Q1901.4424,1751.9293,1902.0919,1753.144Q1902.741,1754.3165,1903.9326,1755.0596Q1905.0814,1755.7612,1906.6891,1756.0767Q1908.1536,1756.3257,1909.8949,1756.3257Q1910.0646,1756.3257,1910.2368,1756.3234Q1914.5819,1756.2637,1916.842,1754.9247Q1919.1028,1753.6278,1919.0587,1750.4218L1919.0078,1746.7094Q1918.98,1744.6844,1918.2432,1743.26Q1917.5485,1741.835,1916.1414,1740.7572L1909.7012,1735.7401Q1909.2319,1735.3668,1908.932,1735.0333Q1908.6327,1734.7422,1908.4587,1734.3647Q1908.2848,1733.9874,1908.194,1733.5245Q1908.1455,1733.061,1908.1367,1732.4282L1908.1084,1730.3611Q1908.0801,1728.2941,1910.1893,1728.2651Q1910.2211,1728.2646,1910.2522,1728.2646Q1912.2991,1728.2646,1912.3247,1730.1345L1912.3872,1734.6907L1919.0104,1734.5997L1918.9565,1730.6764Q1918.9316,1728.8624,1918.2821,1727.6477Q1917.633,1726.4752,1916.4414,1725.732Q1915.2926,1725.0305,1913.6849,1724.7151Q1912.2205,1724.4661,1910.4791,1724.4661 Z M1847.2925,1726.2168L1831.8102,1726.4292L1832.2224,1756.4656L1839.3939,1756.3672L1839.2006,1742.2771L1847.258,1742.1665L1847.2037,1738.201L1839.1462,1738.3116L1839.038,1730.4229L1847.3486,1730.3088L1847.2925,1726.2168 Z M1858.8456,1725.1746Q1858.6747,1725.1746,1858.5017,1725.177Q1856.5189,1725.2041,1854.794,1725.5653Q1853.1106,1725.8838,1851.8549,1726.6183Q1850.6414,1727.3523,1849.9409,1728.5854Q1849.2406,1729.8187,1849.2649,1731.5906L1849.5294,1750.8695Q1849.5537,1752.6414,1850.2877,1753.8549Q1851.0216,1755.0684,1852.2971,1755.7682Q1853.5303,1756.4686,1855.2645,1756.7823Q1856.8022,1757.0298,1858.5807,1757.0298Q1858.7585,1757.0298,1858.9387,1757.0272Q1860.8793,1757.0006,1862.5621,1756.64Q1864.2455,1756.3215,1865.5007,1755.5448Q1866.7142,1754.8109,1867.4146,1753.5776Q1868.1155,1752.3866,1868.0907,1750.5726L1867.8273,1731.378Q1867.8024,1729.564,1867.0684,1728.3505Q1866.3351,1727.1792,1865.0591,1726.4371Q1863.8258,1725.7368,1862.1338,1725.4224Q1860.593,1725.1746,1858.8456,1725.1746 Z"/>
</g>
</g>
</g>
</svg>